<svg xmlns="http://www.w3.org/2000/svg" width="64" height="64" viewBox="0 0 64 64" role="img" aria-label="FitForge">
  <defs>
    <linearGradient id="ffgold" x1="0" y1="0" x2="1" y2="1">
      <stop offset="0" stop-color="#F6D883"/>
      <stop offset="0.45" stop-color="#E4B84D"/>
      <stop offset="1" stop-color="#B8862C"/>
    </linearGradient>
  </defs>
  <rect x="0" y="0" width="64" height="64" rx="14" fill="#0A0D14"/>
  <!-- simplified mark: bar + anvil + spark (plates dropped, bar thickened) -->
  <path d="M17 31 C11 31 8 33 6 37 L17 38 Z" fill="url(#ffgold)"/>
  <rect x="17" y="31" width="30" height="7" rx="2" fill="url(#ffgold)"/>
  <path d="M25 38 L39 38 L36 47 L28 47 Z" fill="url(#ffgold)"/>
  <rect x="23" y="47" width="18" height="6" rx="2" fill="url(#ffgold)"/>
  <rect x="6" y="19" width="52" height="8" rx="4" fill="url(#ffgold)"/>
  <path d="M50 5 L52.2 9.8 L57 12 L52.2 14.2 L50 19 L47.8 14.2 L43 12 L47.8 9.8 Z" fill="#F6D883"/>
</svg>
